<mxfile host="app.diagrams.net" modified="2023-04-17T12:41:13.277Z" agent="Mozilla/5.0 (Windows NT 10.0; Win64; x64) AppleWebKit/537.36 (KHTML, like Gecko) Chrome/111.0.0.0 Safari/537.36 OPR/97.0.0.0" etag="chXy_vCCiCVAsQ0uvK-h" version="21.1.8" type="github">
  <diagram name="Trang-1" id="27Dqmn4jloWZ2EsQ8YqA">
    <mxGraphModel dx="1149" dy="684" grid="1" gridSize="10" guides="1" tooltips="1" connect="1" arrows="1" fold="1" page="1" pageScale="1" pageWidth="827" pageHeight="1169" math="0" shadow="0">
      <root>
        <mxCell id="0" />
        <mxCell id="1" parent="0" />
        <mxCell id="eiyXgNzEFOhZKsBE6SMP-1" value="Customer&lt;br&gt;" style="shape=umlActor;verticalLabelPosition=bottom;verticalAlign=top;html=1;outlineConnect=0;labelBackgroundColor=none;rounded=0;" parent="1" vertex="1">
          <mxGeometry x="590" y="320" width="30" height="60" as="geometry" />
        </mxCell>
        <mxCell id="eiyXgNzEFOhZKsBE6SMP-2" value="" style="endArrow=classic;html=1;rounded=0;labelBackgroundColor=none;fontColor=default;" parent="1" source="eiyXgNzEFOhZKsBE6SMP-1" target="eiyXgNzEFOhZKsBE6SMP-3" edge="1">
          <mxGeometry width="50" height="50" relative="1" as="geometry">
            <mxPoint x="190" y="280" as="sourcePoint" />
            <mxPoint x="520" y="220" as="targetPoint" />
          </mxGeometry>
        </mxCell>
        <mxCell id="eiyXgNzEFOhZKsBE6SMP-3" value="Đăng kí tài khoản" style="ellipse;whiteSpace=wrap;html=1;labelBackgroundColor=none;rounded=0;" parent="1" vertex="1">
          <mxGeometry x="880" y="170" width="120" height="80" as="geometry" />
        </mxCell>
        <mxCell id="eiyXgNzEFOhZKsBE6SMP-4" value="Xem danh sách phim&lt;br&gt;Đang / Sắp được chiếu" style="ellipse;whiteSpace=wrap;html=1;labelBackgroundColor=none;rounded=0;" parent="1" vertex="1">
          <mxGeometry x="870" y="470" width="140" height="90" as="geometry" />
        </mxCell>
        <mxCell id="eiyXgNzEFOhZKsBE6SMP-5" value="" style="endArrow=classic;html=1;rounded=0;entryX=-0.014;entryY=0.422;entryDx=0;entryDy=0;entryPerimeter=0;labelBackgroundColor=none;fontColor=default;" parent="1" source="eiyXgNzEFOhZKsBE6SMP-1" target="eiyXgNzEFOhZKsBE6SMP-4" edge="1">
          <mxGeometry width="50" height="50" relative="1" as="geometry">
            <mxPoint x="140" y="320" as="sourcePoint" />
            <mxPoint x="320" y="410" as="targetPoint" />
          </mxGeometry>
        </mxCell>
        <mxCell id="eiyXgNzEFOhZKsBE6SMP-6" value="" style="endArrow=classic;html=1;rounded=0;labelBackgroundColor=none;fontColor=default;" parent="1" source="eiyXgNzEFOhZKsBE6SMP-1" target="eiyXgNzEFOhZKsBE6SMP-7" edge="1">
          <mxGeometry width="50" height="50" relative="1" as="geometry">
            <mxPoint x="180" y="250" as="sourcePoint" />
            <mxPoint x="330" y="240" as="targetPoint" />
          </mxGeometry>
        </mxCell>
        <mxCell id="eiyXgNzEFOhZKsBE6SMP-7" value="Xem chi tiết phim" style="ellipse;whiteSpace=wrap;html=1;labelBackgroundColor=none;rounded=0;" parent="1" vertex="1">
          <mxGeometry x="890" y="270" width="120" height="80" as="geometry" />
        </mxCell>
        <mxCell id="eiyXgNzEFOhZKsBE6SMP-8" value="Tìm kiếm phim theo tên, thể loại,..." style="ellipse;whiteSpace=wrap;html=1;labelBackgroundColor=none;rounded=0;" parent="1" vertex="1">
          <mxGeometry x="880" y="370" width="120" height="80" as="geometry" />
        </mxCell>
        <mxCell id="eiyXgNzEFOhZKsBE6SMP-9" value="" style="endArrow=classic;html=1;rounded=0;labelBackgroundColor=none;fontColor=default;" parent="1" source="eiyXgNzEFOhZKsBE6SMP-1" target="eiyXgNzEFOhZKsBE6SMP-8" edge="1">
          <mxGeometry width="50" height="50" relative="1" as="geometry">
            <mxPoint x="170" y="220" as="sourcePoint" />
            <mxPoint x="310" y="140" as="targetPoint" />
          </mxGeometry>
        </mxCell>
        <mxCell id="eiyXgNzEFOhZKsBE6SMP-11" value="User&lt;br&gt;&lt;br&gt;" style="shape=umlActor;verticalLabelPosition=bottom;verticalAlign=top;html=1;outlineConnect=0;labelBackgroundColor=none;rounded=0;" parent="1" vertex="1">
          <mxGeometry x="590" y="720" width="30" height="60" as="geometry" />
        </mxCell>
        <mxCell id="eiyXgNzEFOhZKsBE6SMP-14" value="Đăng Nhập" style="ellipse;whiteSpace=wrap;html=1;labelBackgroundColor=none;rounded=0;" parent="1" vertex="1">
          <mxGeometry x="880" y="960" width="120" height="80" as="geometry" />
        </mxCell>
        <mxCell id="eiyXgNzEFOhZKsBE6SMP-15" value="Đăng Xuất" style="ellipse;whiteSpace=wrap;html=1;labelBackgroundColor=none;rounded=0;" parent="1" vertex="1">
          <mxGeometry x="880" y="760" width="120" height="80" as="geometry" />
        </mxCell>
        <mxCell id="eiyXgNzEFOhZKsBE6SMP-16" value="Chỉnh sửa thông tin cá nhân" style="ellipse;whiteSpace=wrap;html=1;labelBackgroundColor=none;rounded=0;" parent="1" vertex="1">
          <mxGeometry x="880" y="860" width="120" height="80" as="geometry" />
        </mxCell>
        <mxCell id="eiyXgNzEFOhZKsBE6SMP-17" value="Đánh giá phim" style="ellipse;whiteSpace=wrap;html=1;labelBackgroundColor=none;rounded=0;" parent="1" vertex="1">
          <mxGeometry x="880" y="660" width="120" height="80" as="geometry" />
        </mxCell>
        <mxCell id="eiyXgNzEFOhZKsBE6SMP-18" value="Xem lịch sử đơn hàng" style="ellipse;whiteSpace=wrap;html=1;labelBackgroundColor=none;rounded=0;" parent="1" vertex="1">
          <mxGeometry x="880" y="570" width="120" height="80" as="geometry" />
        </mxCell>
        <mxCell id="eiyXgNzEFOhZKsBE6SMP-19" value="Đặt vé" style="ellipse;whiteSpace=wrap;html=1;labelBackgroundColor=none;rounded=0;" parent="1" vertex="1">
          <mxGeometry x="880" y="1060" width="120" height="80" as="geometry" />
        </mxCell>
        <mxCell id="eiyXgNzEFOhZKsBE6SMP-20" value="Thanh toán đơn hàng" style="ellipse;whiteSpace=wrap;html=1;labelBackgroundColor=none;rounded=0;" parent="1" vertex="1">
          <mxGeometry x="880" y="1169" width="120" height="80" as="geometry" />
        </mxCell>
        <mxCell id="eiyXgNzEFOhZKsBE6SMP-22" value="Admin" style="shape=umlActor;verticalLabelPosition=bottom;verticalAlign=top;html=1;outlineConnect=0;labelBackgroundColor=none;rounded=0;" parent="1" vertex="1">
          <mxGeometry x="620" y="1500" width="30" height="60" as="geometry" />
        </mxCell>
        <mxCell id="eiyXgNzEFOhZKsBE6SMP-23" value="Quản lý user" style="ellipse;whiteSpace=wrap;html=1;labelBackgroundColor=none;rounded=0;" parent="1" vertex="1">
          <mxGeometry x="880" y="1260" width="120" height="80" as="geometry" />
        </mxCell>
        <mxCell id="eiyXgNzEFOhZKsBE6SMP-24" value="Xem thống kê cho các đơn được đặt" style="ellipse;whiteSpace=wrap;html=1;labelBackgroundColor=none;rounded=0;" parent="1" vertex="1">
          <mxGeometry x="880" y="1360" width="120" height="80" as="geometry" />
        </mxCell>
        <mxCell id="eiyXgNzEFOhZKsBE6SMP-25" value="Quản lý phim" style="ellipse;whiteSpace=wrap;html=1;labelBackgroundColor=none;rounded=0;" parent="1" vertex="1">
          <mxGeometry x="880" y="1450" width="120" height="80" as="geometry" />
        </mxCell>
        <mxCell id="eiyXgNzEFOhZKsBE6SMP-26" value="Quản lý lịch chiếu" style="ellipse;whiteSpace=wrap;html=1;labelBackgroundColor=none;rounded=0;" parent="1" vertex="1">
          <mxGeometry x="880" y="1550" width="120" height="80" as="geometry" />
        </mxCell>
        <mxCell id="eiyXgNzEFOhZKsBE6SMP-34" value="" style="endArrow=classic;html=1;rounded=0;labelBackgroundColor=none;fontColor=default;" parent="1" source="eiyXgNzEFOhZKsBE6SMP-11" target="eiyXgNzEFOhZKsBE6SMP-15" edge="1">
          <mxGeometry width="50" height="50" relative="1" as="geometry">
            <mxPoint x="390" y="1020" as="sourcePoint" />
            <mxPoint x="440" y="970" as="targetPoint" />
          </mxGeometry>
        </mxCell>
        <mxCell id="eiyXgNzEFOhZKsBE6SMP-35" value="" style="endArrow=classic;html=1;rounded=0;exitX=0.5;exitY=0.5;exitDx=0;exitDy=0;exitPerimeter=0;labelBackgroundColor=none;fontColor=default;" parent="1" source="eiyXgNzEFOhZKsBE6SMP-11" target="eiyXgNzEFOhZKsBE6SMP-16" edge="1">
          <mxGeometry width="50" height="50" relative="1" as="geometry">
            <mxPoint x="140" y="871" as="sourcePoint" />
            <mxPoint x="370" y="727" as="targetPoint" />
          </mxGeometry>
        </mxCell>
        <mxCell id="eiyXgNzEFOhZKsBE6SMP-36" value="" style="endArrow=classic;html=1;rounded=0;labelBackgroundColor=none;fontColor=default;" parent="1" source="eiyXgNzEFOhZKsBE6SMP-11" target="eiyXgNzEFOhZKsBE6SMP-17" edge="1">
          <mxGeometry width="50" height="50" relative="1" as="geometry">
            <mxPoint x="120" y="870" as="sourcePoint" />
            <mxPoint x="380" y="737" as="targetPoint" />
          </mxGeometry>
        </mxCell>
        <mxCell id="eiyXgNzEFOhZKsBE6SMP-37" value="" style="endArrow=classic;html=1;rounded=0;exitX=0.5;exitY=0.5;exitDx=0;exitDy=0;exitPerimeter=0;labelBackgroundColor=none;fontColor=default;" parent="1" source="eiyXgNzEFOhZKsBE6SMP-11" target="eiyXgNzEFOhZKsBE6SMP-18" edge="1">
          <mxGeometry width="50" height="50" relative="1" as="geometry">
            <mxPoint x="160" y="891" as="sourcePoint" />
            <mxPoint x="390" y="747" as="targetPoint" />
          </mxGeometry>
        </mxCell>
        <mxCell id="eiyXgNzEFOhZKsBE6SMP-38" value="" style="endArrow=classic;html=1;rounded=0;exitX=0.5;exitY=0.5;exitDx=0;exitDy=0;exitPerimeter=0;labelBackgroundColor=none;fontColor=default;" parent="1" source="eiyXgNzEFOhZKsBE6SMP-11" target="eiyXgNzEFOhZKsBE6SMP-19" edge="1">
          <mxGeometry width="50" height="50" relative="1" as="geometry">
            <mxPoint x="125" y="880" as="sourcePoint" />
            <mxPoint x="364" y="988" as="targetPoint" />
          </mxGeometry>
        </mxCell>
        <mxCell id="eiyXgNzEFOhZKsBE6SMP-39" value="" style="endArrow=classic;html=1;rounded=0;exitX=0.5;exitY=0.5;exitDx=0;exitDy=0;exitPerimeter=0;entryX=0;entryY=0;entryDx=0;entryDy=0;labelBackgroundColor=none;fontColor=default;" parent="1" source="eiyXgNzEFOhZKsBE6SMP-11" target="eiyXgNzEFOhZKsBE6SMP-20" edge="1">
          <mxGeometry width="50" height="50" relative="1" as="geometry">
            <mxPoint x="135" y="890" as="sourcePoint" />
            <mxPoint x="374" y="998" as="targetPoint" />
          </mxGeometry>
        </mxCell>
        <mxCell id="eiyXgNzEFOhZKsBE6SMP-40" value="" style="endArrow=classic;html=1;rounded=0;entryX=0.092;entryY=0.775;entryDx=0;entryDy=0;entryPerimeter=0;labelBackgroundColor=none;fontColor=default;" parent="1" source="eiyXgNzEFOhZKsBE6SMP-22" target="eiyXgNzEFOhZKsBE6SMP-23" edge="1">
          <mxGeometry width="50" height="50" relative="1" as="geometry">
            <mxPoint x="390" y="1620" as="sourcePoint" />
            <mxPoint x="440" y="1570" as="targetPoint" />
          </mxGeometry>
        </mxCell>
        <mxCell id="eiyXgNzEFOhZKsBE6SMP-41" value="" style="endArrow=classic;html=1;rounded=0;exitX=0.5;exitY=0.5;exitDx=0;exitDy=0;exitPerimeter=0;labelBackgroundColor=none;fontColor=default;" parent="1" source="eiyXgNzEFOhZKsBE6SMP-22" target="eiyXgNzEFOhZKsBE6SMP-24" edge="1">
          <mxGeometry width="50" height="50" relative="1" as="geometry">
            <mxPoint x="220" y="1530" as="sourcePoint" />
            <mxPoint x="375" y="1432" as="targetPoint" />
          </mxGeometry>
        </mxCell>
        <mxCell id="eiyXgNzEFOhZKsBE6SMP-43" value="" style="endArrow=classic;html=1;rounded=0;labelBackgroundColor=none;fontColor=default;" parent="1" source="eiyXgNzEFOhZKsBE6SMP-22" target="eiyXgNzEFOhZKsBE6SMP-25" edge="1">
          <mxGeometry width="50" height="50" relative="1" as="geometry">
            <mxPoint x="390" y="1620" as="sourcePoint" />
            <mxPoint x="440" y="1570" as="targetPoint" />
          </mxGeometry>
        </mxCell>
        <mxCell id="eiyXgNzEFOhZKsBE6SMP-44" value="" style="endArrow=classic;html=1;rounded=0;labelBackgroundColor=none;fontColor=default;" parent="1" source="eiyXgNzEFOhZKsBE6SMP-22" target="eiyXgNzEFOhZKsBE6SMP-26" edge="1">
          <mxGeometry width="50" height="50" relative="1" as="geometry">
            <mxPoint x="220" y="1532" as="sourcePoint" />
            <mxPoint x="385" y="1442" as="targetPoint" />
          </mxGeometry>
        </mxCell>
        <mxCell id="8rNhFNdXtUtdGlSlbBdw-1" value="" style="endArrow=classic;html=1;rounded=0;labelBackgroundColor=none;fontColor=default;" parent="1" source="eiyXgNzEFOhZKsBE6SMP-11" target="eiyXgNzEFOhZKsBE6SMP-14" edge="1">
          <mxGeometry width="50" height="50" relative="1" as="geometry">
            <mxPoint x="480" y="950" as="sourcePoint" />
            <mxPoint x="810" y="960" as="targetPoint" />
          </mxGeometry>
        </mxCell>
        <mxCell id="8rNhFNdXtUtdGlSlbBdw-3" value="" style="endArrow=classic;html=1;rounded=0;entryX=0;entryY=0.5;entryDx=0;entryDy=0;exitX=0.5;exitY=0.5;exitDx=0;exitDy=0;exitPerimeter=0;labelBackgroundColor=none;fontColor=default;" parent="1" source="eiyXgNzEFOhZKsBE6SMP-11" target="eiyXgNzEFOhZKsBE6SMP-4" edge="1">
          <mxGeometry width="50" height="50" relative="1" as="geometry">
            <mxPoint x="570" y="890" as="sourcePoint" />
            <mxPoint x="850" y="850" as="targetPoint" />
          </mxGeometry>
        </mxCell>
        <mxCell id="8rNhFNdXtUtdGlSlbBdw-6" value="" style="endArrow=classic;html=1;rounded=0;hachureGap=4;fontFamily=Architects Daughter;fontSource=https%3A%2F%2Ffonts.googleapis.com%2Fcss%3Ffamily%3DArchitects%2BDaughter;fontSize=16;entryX=0;entryY=1;entryDx=0;entryDy=0;exitX=0.5;exitY=0.5;exitDx=0;exitDy=0;exitPerimeter=0;" parent="1" source="eiyXgNzEFOhZKsBE6SMP-11" target="eiyXgNzEFOhZKsBE6SMP-8" edge="1">
          <mxGeometry width="50" height="50" relative="1" as="geometry">
            <mxPoint x="930" y="720" as="sourcePoint" />
            <mxPoint x="980" y="670" as="targetPoint" />
          </mxGeometry>
        </mxCell>
        <mxCell id="8rNhFNdXtUtdGlSlbBdw-11" value="" style="endArrow=classic;html=1;rounded=0;" parent="1" source="eiyXgNzEFOhZKsBE6SMP-11" target="eiyXgNzEFOhZKsBE6SMP-7" edge="1">
          <mxGeometry width="50" height="50" relative="1" as="geometry">
            <mxPoint x="970" y="690" as="sourcePoint" />
            <mxPoint x="1020" y="640" as="targetPoint" />
          </mxGeometry>
        </mxCell>
        <mxCell id="8rNhFNdXtUtdGlSlbBdw-13" value="Đăng nhập" style="ellipse;whiteSpace=wrap;html=1;rounded=0;" parent="1" vertex="1">
          <mxGeometry x="880" y="1640" width="120" height="80" as="geometry" />
        </mxCell>
        <mxCell id="8rNhFNdXtUtdGlSlbBdw-14" value="Đăng xuất" style="ellipse;whiteSpace=wrap;html=1;rounded=0;" parent="1" vertex="1">
          <mxGeometry x="880" y="1730" width="120" height="80" as="geometry" />
        </mxCell>
        <mxCell id="8rNhFNdXtUtdGlSlbBdw-15" value="" style="endArrow=classic;html=1;rounded=0;" parent="1" source="eiyXgNzEFOhZKsBE6SMP-22" target="8rNhFNdXtUtdGlSlbBdw-13" edge="1">
          <mxGeometry width="50" height="50" relative="1" as="geometry">
            <mxPoint x="940" y="1600" as="sourcePoint" />
            <mxPoint x="990" y="1550" as="targetPoint" />
          </mxGeometry>
        </mxCell>
        <mxCell id="8rNhFNdXtUtdGlSlbBdw-16" value="" style="endArrow=classic;html=1;rounded=0;" parent="1" source="eiyXgNzEFOhZKsBE6SMP-22" target="8rNhFNdXtUtdGlSlbBdw-14" edge="1">
          <mxGeometry width="50" height="50" relative="1" as="geometry">
            <mxPoint x="940" y="1600" as="sourcePoint" />
            <mxPoint x="990" y="1550" as="targetPoint" />
          </mxGeometry>
        </mxCell>
        <mxCell id="IMhgnGrbDQF9-j5RHEaq-1" value="Actor" style="shape=umlActor;verticalLabelPosition=bottom;verticalAlign=top;html=1;outlineConnect=0;rounded=0;" vertex="1" parent="1">
          <mxGeometry x="1800" y="395" width="60" height="90" as="geometry" />
        </mxCell>
        <mxCell id="IMhgnGrbDQF9-j5RHEaq-2" value="Đăng nhập" style="ellipse;whiteSpace=wrap;html=1;rounded=0;" vertex="1" parent="1">
          <mxGeometry x="1990" y="400" width="120" height="80" as="geometry" />
        </mxCell>
        <mxCell id="IMhgnGrbDQF9-j5RHEaq-3" value="" style="endArrow=classic;html=1;rounded=0;" edge="1" parent="1" source="IMhgnGrbDQF9-j5RHEaq-1" target="IMhgnGrbDQF9-j5RHEaq-2">
          <mxGeometry width="50" height="50" relative="1" as="geometry">
            <mxPoint x="2040" y="530" as="sourcePoint" />
            <mxPoint x="2090" y="480" as="targetPoint" />
          </mxGeometry>
        </mxCell>
        <mxCell id="IMhgnGrbDQF9-j5RHEaq-4" value="CSDL" style="shape=cylinder3;whiteSpace=wrap;html=1;boundedLbl=1;backgroundOutline=1;size=15;rounded=0;" vertex="1" parent="1">
          <mxGeometry x="2220" y="395" width="70" height="90" as="geometry" />
        </mxCell>
        <mxCell id="IMhgnGrbDQF9-j5RHEaq-5" value="" style="endArrow=none;html=1;rounded=0;" edge="1" parent="1" source="IMhgnGrbDQF9-j5RHEaq-2" target="IMhgnGrbDQF9-j5RHEaq-4">
          <mxGeometry width="50" height="50" relative="1" as="geometry">
            <mxPoint x="2040" y="530" as="sourcePoint" />
            <mxPoint x="2090" y="480" as="targetPoint" />
          </mxGeometry>
        </mxCell>
        <mxCell id="IMhgnGrbDQF9-j5RHEaq-10" value="" style="endArrow=none;html=1;rounded=0;entryX=0.5;entryY=1;entryDx=0;entryDy=0;exitX=0.5;exitY=0;exitDx=0;exitDy=0;" edge="1" parent="1">
          <mxGeometry width="50" height="50" relative="1" as="geometry">
            <mxPoint x="2040" y="560" as="sourcePoint" />
            <mxPoint x="2040" y="1000.0000000000002" as="targetPoint" />
          </mxGeometry>
        </mxCell>
        <mxCell id="IMhgnGrbDQF9-j5RHEaq-15" value="" style="line;strokeWidth=2;direction=south;html=1;" vertex="1" parent="1">
          <mxGeometry x="2200" y="560" width="10" height="440" as="geometry" />
        </mxCell>
        <mxCell id="IMhgnGrbDQF9-j5RHEaq-16" value="" style="line;strokeWidth=2;direction=south;html=1;" vertex="1" parent="1">
          <mxGeometry x="1840" y="560" width="10" height="440" as="geometry" />
        </mxCell>
        <mxCell id="IMhgnGrbDQF9-j5RHEaq-18" value="" style="shape=partialRectangle;whiteSpace=wrap;html=1;left=0;right=0;fillColor=none;" vertex="1" parent="1">
          <mxGeometry x="1840" y="560" width="370" height="440" as="geometry" />
        </mxCell>
      </root>
    </mxGraphModel>
  </diagram>
</mxfile>
